<svg id="Layer_1" data-name="Layer 1" xmlns="http://www.w3.org/2000/svg" xmlns:xlink="http://www.w3.org/1999/xlink" viewBox="0 0 759.12 326.15"><defs><style>.cls-1{fill:none;}.cls-2{stroke:#000;stroke-miterlimit:10;}.cls-3{fill:url(#Gold_Gradient);}.cls-4{fill:url(#Gold_Gradient-15);}.cls-5{clip-path:url(#clip-path);}.cls-6{fill:url(#Gold_Gradient-16);}.cls-7{clip-path:url(#clip-path-2);}.cls-8{clip-path:url(#clip-path-3);}</style><linearGradient id="Gold_Gradient" x1="16.34" y1="122.81" x2="774.46" y2="122.81" gradientUnits="userSpaceOnUse"><stop offset="0" stop-color="#a67e2d"/><stop offset="0.1" stop-color="#ffcd05"/><stop offset="0.5" stop-color="#fff6c0"/><stop offset="0.88" stop-color="#ffcd05"/><stop offset="1" stop-color="#a67e2d"/></linearGradient><linearGradient id="Gold_Gradient-15" x1="263.15" y1="269.79" x2="528.8" y2="269.79" xlink:href="#Gold_Gradient"/><clipPath id="clip-path" transform="translate(-15.84 -30.13)"><rect class="cls-1" x="524.79" y="165.23" width="271.07" height="127.61"/></clipPath><linearGradient id="Gold_Gradient-16" x1="106.55" y1="149.52" x2="685.39" y2="149.52" xlink:href="#Gold_Gradient"/><clipPath id="clip-path-2" transform="translate(-15.84 -30.13)"><rect class="cls-1" x="82.89" y="-44.06" width="608.45" height="127.61"/></clipPath><clipPath id="clip-path-3" transform="translate(-15.84 -30.13)"><rect class="cls-1" x="25.62" y="180.66" width="241.54" height="99.53"/></clipPath></defs><path class="cls-2" d="M19.06,96.91c0-1.92-.57-2.6-2.72-2.94V92.39H41.23c18.77,0,27.37,13.12,27.37,29.74,0,20-10.41,29.75-29.64,29.75H16.34V150.3c2.15-.34,2.72-1,2.72-2.94Zm11.31,45.47h6.56c15,0,20.36-4.75,20.36-20.25S52,101.89,36.93,101.89H30.37Z" transform="translate(-15.84 -30.13)"/><path class="cls-2" d="M78.33,151.88V150.3c.79-.34,1-1,1.35-1.93,1-2.71,14.71-42,14.71-43.09a1.91,1.91,0,0,0-.91-1.58v-1.58h14v1.58a1.69,1.69,0,0,0-.79,1.36c0,.79,9.16,26.46,14.37,41.28.79,2.26,1.13,3.73,2.71,4v1.58H110.22V150.3a2,2,0,0,0,1.36-1.81c0-1.7-2.38-6.79-3.28-10H91.78c-.56,2.15-3,7.92-3,9.84,0,1,.23,1.7.91,1.93v1.58ZM93.59,132.2h12.9l-6.11-22.62h-.23Z" transform="translate(-15.84 -30.13)"/><path class="cls-2" d="M135.55,151.88V150.3c1,0,2-.8,2-2.94V106.64c0-2.15-1-2.94-2-2.94v-1.58h25.79c11.88,0,17.19,6.22,17.19,15.38,0,6.44-5.54,13-12.44,13.68l9.39,15.72c1.35,2.27,1.69,3.06,3.05,3.4v1.58H165V150.3c.68,0,1.24-.23,1.24-.91a4.39,4.39,0,0,0-.9-2.49l-8.82-14.7h-8.94v15.16c0,2.14,1,2.94,2,2.94v1.58Zm12-27.14h10.07c8.48,0,11.42-2.15,11.42-7.58s-2.94-7.58-11.42-7.58H147.54Z" transform="translate(-15.84 -30.13)"/><path class="cls-2" d="M194,151.88V150.3c1.24,0,2.26-.8,2.26-2.94V106.64c0-2.15-1-2.94-2.26-2.94v-1.58h14v1.58c-.79,0-1.81.79-1.81,2.94v15.61l14.37-15c1.35-1.36,2.14-2,2.14-2.72,0-.45-.45-.68-1.35-.79v-1.58h14.93v1.58a5.67,5.67,0,0,0-2.83,1.58l-17,16.85,15.72,23.64c1.48,2.15,2.95,3.85,4.75,4.53v1.58H222.08V150.3c1.47,0,1.81-.23,1.81-.91a8.22,8.22,0,0,0-1.59-3.28L210.88,127.9l-4.64,4.53v14.93c0,2.14,1,2.94,2,2.94v1.58Z" transform="translate(-15.84 -30.13)"/><path class="cls-2" d="M245.94,151.88V150.3c1.92,0,2.94-.8,2.94-2.94V106.64c0-2.15-1-2.94-2.94-2.94v-1.58h15.49v1.58c-1.58,0-2.6.79-2.6,2.94V144h19.8c1.92,0,2.6-.9,2.94-2.82h1.58v12.78h-1.58c-.34-1.36-1-2-2.94-2Z" transform="translate(-15.84 -30.13)"/><path class="cls-2" d="M295.7,151.88V150.3c1.36,0,2.38-.8,2.38-2.94V106.64c0-2.15-.91-2.94-2.38-2.94v-1.58h14.71v1.58c-1.47,0-2.38.79-2.38,2.94v40.72c0,2.14.91,2.94,2.38,2.94v1.58Z" transform="translate(-15.84 -30.13)"/><path class="cls-2" d="M327.15,151.88V150.3c1.47,0,2.49-.8,2.49-2.94V106.64c0-2.15-1-2.94-2.49-2.94v-1.58h16.51v1.58c-1.13.34-1.58.79-1.58,1.58-.12,1,1.81,3.74,2.48,4.87l16.29,25.9h.23V106.64c0-2.15-1-2.94-2.27-2.94v-1.58h13.35v1.58c-1.24,0-2.26.79-2.26,2.94v40.72c0,2.14,1,2.94,2.26,2.94v1.58H357.91V150.3a1.43,1.43,0,0,0,1.13-1.25,5.3,5.3,0,0,0-1.24-2.71l-19.12-29.18h-.22v30.2c0,2.14,1,2.94,2.48,2.94v1.58Z" transform="translate(-15.84 -30.13)"/><path class="cls-2" d="M389.35,106.64c0-2.15-.9-2.94-2-2.94v-1.58h33c1.92,0,2.6-.68,2.94-2h1.59V113h-1.59c-.34-2-1-2.94-2.94-2.94h-21v12.22H412c1.93,0,2.6-.57,2.94-2.49h1.59v12.89h-1.59c-.34-1.92-1-2.49-2.94-2.49H399.31V144h21c1.92,0,2.6-.9,2.94-2.82h1.59v12.78h-1.59c-.34-1.36-1-2-2.94-2h-33V150.3c1.13,0,2-.8,2-2.94Z" transform="translate(-15.84 -30.13)"/><path class="cls-2" d="M474.74,134.46l1.59.68a4.62,4.62,0,0,0-.23,1.13c0,4,9.28,6.79,15.72,6.79,10.41,0,13.91-3.51,13.91-8.82,0-12.44-35.74-4.19-35.74-25.34,0-8.93,6.56-17.19,21.38-17.19a36.44,36.44,0,0,1,13.57,2.38c3.17,1.24,5,2.37,6.11,2.37a3.14,3.14,0,0,0,2.6-1.36l.9.46-8.37,14-1.58-.68c0-.34.11-1.24.11-1.92,0-2.6-5-6.67-14.36-6.67-6.45,0-9.05,3.16-9.05,7,0,12,35.74,3.17,35.74,26.46,0,9.28-8.14,18.78-25.78,18.78a38.52,38.52,0,0,1-13.35-2.49c-3.62-1.36-5.2-2.49-6.9-2.49-.68,0-1.13.68-1.92,1.59l-1.13-.68Z" transform="translate(-15.84 -30.13)"/><path class="cls-2" d="M525.87,112.07v-12h1.58a2.64,2.64,0,0,0,2.94,2h29.86a2.64,2.64,0,0,0,2.94-2h1.58v12.21h-1.58a2.62,2.62,0,0,0-2.94-2.26h-10v37.33c0,2.14,1,2.94,1.58,2.94v1.58H538.53V150.3c.8,0,1.81-.8,1.81-2.94V110h-10a2.64,2.64,0,0,0-2.94,2Z" transform="translate(-15.84 -30.13)"/><path class="cls-2" d="M589.77,102.12v1.58c-.91,0-1.81.79-1.81,2.94v28.5c0,5.88,3.62,9.5,10.4,9.5s10.41-3.62,10.41-9.5v-28.5c0-2.15-.91-2.94-1.81-2.94v-1.58h13.57v1.58c-.9,0-1.81.79-1.81,2.94V134c0,12.89-7.46,18.55-20.36,18.55S578,146.9,578,134V106.64c0-2.15-.91-2.94-2-2.94v-1.58Z" transform="translate(-15.84 -30.13)"/><path class="cls-2" d="M637.5,106.64c0-2.15-.91-2.94-2-2.94v-1.58H657.4c15.16,0,23.3,8.82,23.3,24.88s-8.14,24.88-23.3,24.88H635.46V150.3c1.13,0,2-.8,2-2.94Zm10,37.32h8.82c9.5,0,14.93-4.07,14.93-17s-5.43-17-14.93-17h-8.82Z" transform="translate(-15.84 -30.13)"/><path class="cls-2" d="M696.65,151.88V150.3c1.36,0,2.38-.8,2.38-2.94V106.64c0-2.15-.91-2.94-2.38-2.94v-1.58h14.7v1.58c-1.47,0-2.37.79-2.37,2.94v40.72c0,2.14.9,2.94,2.37,2.94v1.58Z" transform="translate(-15.84 -30.13)"/><path class="cls-2" d="M750.6,101.44c14,0,23.86,10.63,23.86,25.56s-9.83,25.56-23.86,25.56S726.74,141.93,726.74,127,736.58,101.44,750.6,101.44Zm0,43.2c7.92,0,14.36-6.56,14.36-17.64s-6.44-17.65-14.36-17.65-14.36,6.56-14.36,17.65S742.68,144.64,750.6,144.64Z" transform="translate(-15.84 -30.13)"/><path class="cls-3" d="M19.06,96.91c0-1.92-.57-2.6-2.72-2.94V92.39H41.23c18.77,0,27.37,13.12,27.37,29.74,0,20-10.41,29.75-29.64,29.75H16.34V150.3c2.15-.34,2.72-1,2.72-2.94Zm11.31,45.47h6.56c15,0,20.36-4.75,20.36-20.25S52,101.89,36.93,101.89H30.37Z" transform="translate(-15.84 -30.13)"/><path class="cls-3" d="M78.33,151.88V150.3c.79-.34,1-1,1.35-1.93,1-2.71,14.71-42,14.71-43.09a1.91,1.91,0,0,0-.91-1.58v-1.58h14v1.58a1.69,1.69,0,0,0-.79,1.36c0,.79,9.16,26.46,14.37,41.28.79,2.26,1.13,3.73,2.71,4v1.58H110.22V150.3a2,2,0,0,0,1.36-1.81c0-1.7-2.38-6.79-3.28-10H91.78c-.56,2.15-3,7.92-3,9.84,0,1,.23,1.7.91,1.93v1.58ZM93.59,132.2h12.9l-6.11-22.62h-.23Z" transform="translate(-15.84 -30.13)"/><path class="cls-3" d="M135.55,151.88V150.3c1,0,2-.8,2-2.94V106.64c0-2.15-1-2.94-2-2.94v-1.58h25.79c11.88,0,17.19,6.22,17.19,15.38,0,6.44-5.54,13-12.44,13.68l9.39,15.72c1.35,2.27,1.69,3.06,3.05,3.4v1.58H165V150.3c.68,0,1.24-.23,1.24-.91a4.39,4.39,0,0,0-.9-2.49l-8.82-14.7h-8.94v15.16c0,2.14,1,2.94,2,2.94v1.58Zm12-27.14h10.07c8.48,0,11.42-2.15,11.42-7.58s-2.94-7.58-11.42-7.58H147.54Z" transform="translate(-15.84 -30.13)"/><path class="cls-3" d="M194,151.88V150.3c1.24,0,2.26-.8,2.26-2.94V106.64c0-2.15-1-2.94-2.26-2.94v-1.58h14v1.58c-.79,0-1.81.79-1.81,2.94v15.61l14.37-15c1.35-1.36,2.14-2,2.14-2.72,0-.45-.45-.68-1.35-.79v-1.58h14.93v1.58a5.67,5.67,0,0,0-2.83,1.58l-17,16.85,15.72,23.64c1.48,2.15,2.95,3.85,4.75,4.53v1.58H222.08V150.3c1.47,0,1.81-.23,1.81-.91a8.22,8.22,0,0,0-1.59-3.28L210.88,127.9l-4.64,4.53v14.93c0,2.14,1,2.94,2,2.94v1.58Z" transform="translate(-15.84 -30.13)"/><path class="cls-3" d="M245.94,151.88V150.3c1.92,0,2.94-.8,2.94-2.94V106.64c0-2.15-1-2.94-2.94-2.94v-1.58h15.49v1.58c-1.58,0-2.6.79-2.6,2.94V144h19.8c1.92,0,2.6-.9,2.94-2.82h1.58v12.78h-1.58c-.34-1.36-1-2-2.94-2Z" transform="translate(-15.84 -30.13)"/><path class="cls-3" d="M295.7,151.88V150.3c1.36,0,2.38-.8,2.38-2.94V106.64c0-2.15-.91-2.94-2.38-2.94v-1.58h14.71v1.58c-1.47,0-2.38.79-2.38,2.94v40.72c0,2.14.91,2.94,2.38,2.94v1.58Z" transform="translate(-15.84 -30.13)"/><path class="cls-3" d="M327.15,151.88V150.3c1.47,0,2.49-.8,2.49-2.94V106.64c0-2.15-1-2.94-2.49-2.94v-1.58h16.51v1.58c-1.13.34-1.58.79-1.58,1.58-.12,1,1.81,3.74,2.48,4.87l16.29,25.9h.23V106.64c0-2.15-1-2.94-2.27-2.94v-1.58h13.35v1.58c-1.24,0-2.26.79-2.26,2.94v40.72c0,2.14,1,2.94,2.26,2.94v1.58H357.91V150.3a1.43,1.43,0,0,0,1.13-1.25,5.3,5.3,0,0,0-1.24-2.71l-19.12-29.18h-.22v30.2c0,2.14,1,2.94,2.48,2.94v1.58Z" transform="translate(-15.84 -30.13)"/><path class="cls-3" d="M389.35,106.64c0-2.15-.9-2.94-2-2.94v-1.58h33c1.92,0,2.6-.68,2.94-2h1.59V113h-1.59c-.34-2-1-2.94-2.94-2.94h-21v12.22H412c1.93,0,2.6-.57,2.94-2.49h1.59v12.89h-1.59c-.34-1.92-1-2.49-2.94-2.49H399.31V144h21c1.92,0,2.6-.9,2.94-2.82h1.59v12.78h-1.59c-.34-1.36-1-2-2.94-2h-33V150.3c1.13,0,2-.8,2-2.94Z" transform="translate(-15.84 -30.13)"/><path class="cls-3" d="M474.74,134.46l1.59.68a4.62,4.62,0,0,0-.23,1.13c0,4,9.28,6.79,15.72,6.79,10.41,0,13.91-3.51,13.91-8.82,0-12.44-35.74-4.19-35.74-25.34,0-8.93,6.56-17.19,21.38-17.19a36.44,36.44,0,0,1,13.57,2.38c3.17,1.24,5,2.37,6.11,2.37a3.14,3.14,0,0,0,2.6-1.36l.9.46-8.37,14-1.58-.68c0-.34.11-1.24.11-1.92,0-2.6-5-6.67-14.36-6.67-6.45,0-9.05,3.16-9.05,7,0,12,35.74,3.17,35.74,26.46,0,9.28-8.14,18.78-25.78,18.78a38.52,38.52,0,0,1-13.35-2.49c-3.62-1.36-5.2-2.49-6.9-2.49-.68,0-1.13.68-1.92,1.59l-1.13-.68Z" transform="translate(-15.84 -30.13)"/><path class="cls-3" d="M525.87,112.07v-12h1.58a2.64,2.64,0,0,0,2.94,2h29.86a2.64,2.64,0,0,0,2.94-2h1.58v12.21h-1.58a2.62,2.62,0,0,0-2.94-2.26h-10v37.33c0,2.14,1,2.94,1.58,2.94v1.58H538.53V150.3c.8,0,1.81-.8,1.81-2.94V110h-10a2.64,2.64,0,0,0-2.94,2Z" transform="translate(-15.84 -30.13)"/><path class="cls-3" d="M589.77,102.12v1.58c-.91,0-1.81.79-1.81,2.94v28.5c0,5.88,3.62,9.5,10.4,9.5s10.41-3.62,10.41-9.5v-28.5c0-2.15-.91-2.94-1.81-2.94v-1.58h13.57v1.58c-.9,0-1.81.79-1.81,2.94V134c0,12.89-7.46,18.55-20.36,18.55S578,146.9,578,134V106.64c0-2.15-.91-2.94-2-2.94v-1.58Z" transform="translate(-15.84 -30.13)"/><path class="cls-3" d="M637.5,106.64c0-2.15-.91-2.94-2-2.94v-1.58H657.4c15.16,0,23.3,8.82,23.3,24.88s-8.14,24.88-23.3,24.88H635.46V150.3c1.13,0,2-.8,2-2.94Zm10,37.32h8.82c9.5,0,14.93-4.07,14.93-17s-5.43-17-14.93-17h-8.82Z" transform="translate(-15.84 -30.13)"/><path class="cls-3" d="M696.65,151.88V150.3c1.36,0,2.38-.8,2.38-2.94V106.64c0-2.15-.91-2.94-2.38-2.94v-1.58h14.7v1.58c-1.47,0-2.37.79-2.37,2.94v40.72c0,2.14.9,2.94,2.37,2.94v1.58Z" transform="translate(-15.84 -30.13)"/><path class="cls-3" d="M750.6,101.44c14,0,23.86,10.63,23.86,25.56s-9.83,25.56-23.86,25.56S726.74,141.93,726.74,127,736.58,101.44,750.6,101.44Zm0,43.2c7.92,0,14.36-6.56,14.36-17.64s-6.44-17.65-14.36-17.65-14.36,6.56-14.36,17.65S742.68,144.64,750.6,144.64Z" transform="translate(-15.84 -30.13)"/><path class="cls-4" d="M338.6,356.28c-10-2-15.82-6-18.83-13a1.91,1.91,0,0,0-.68-.68c-.17-.13-.39-.29-.66-.51l-.14-.11h-.18l-2.52,0c-.95,0-1.94,0-2.94,0-1.31,0-2.45,0-3.48.1-1.31.08-2.65.12-4,.12a74.12,74.12,0,0,1-25.93-5c-6.94-2.56-13.7-6.05-16.12-14.13v-6.56c4.26-9.55,11.09-18.08,21.5-26.83,9.42-7.91,20.43-14.94,34.63-22.12,18.72-9.45,35.74-17.7,54.58-23,6.24-1.75,9.9-5.47,11.52-11.7l.08-.28L382,229.44l3.88-3.21-.2-.34c-4.14-7-9.4-11.79-16.06-14.59-3.61-1.52-7.81-3.25-12-4.66-6.2-2.06-10.49-5.28-13.11-9.85-1.95-3.38-3.76-7.33-.77-11.42l1.5.07c.59,1,1.13,1.92,1.67,2.86a41.86,41.86,0,0,0,4,6.17c3.73,4.54,9.2,6.62,14.49,8.63l.85.32c7.84,3,17.52,7.7,22.84,17.68a21.93,21.93,0,0,0,1.25,2l.59.87.15.23h10.59l.14-.25a49,49,0,0,1,20.17-19.19c3.38-1.81,6.94-3.48,10.38-5.09l.7-.33c7.29-3.41,11.62-8.8,12.87-16h2.31c2.66,3.83,2.44,7.81-.66,12.16a25.6,25.6,0,0,1-9.63,8.43l-1,.47a198.5,198.5,0,0,0-18.21,9.8c-4,2.53-9.62,6.65-12.05,13.06l-.06.17.07.17a29.33,29.33,0,0,1,1.44,5.34c.65,3.22,1.32,6.55,4,9.47l.07.08.1.05c.56.23,1.17.5,1.81.78,1.49.66,3.19,1.41,4.93,2,3.89,1.43,7.87,2.8,11.73,4.13,8,2.75,16.19,5.6,24,9,20.54,9.06,36.29,18.22,49.58,28.82,9,7.16,18.91,16.23,24.54,29.19v7.44c-.38.53-.75,1.07-1.12,1.6a29.29,29.29,0,0,1-2.74,3.61c-3.27,3.54-7.71,6.19-13.56,8.12-10.09,3.33-18.48,4.88-26.39,4.88-1,0-2.08,0-3.11-.09s-2.25-.08-3.64-.08c-1,0-2.07,0-3.07,0l-2.8,0h-.32l-.13.28c-3.89,8.17-10,12.47-18.76,13.14a15.08,15.08,0,0,0-2.69.54l-1.12.29h-2.94c-.85-.13-1.78-.25-2.7-.36-2-.25-4-.51-6-.91-12.29-2.55-20.72-9.38-25.07-20.33a3.45,3.45,0,0,0-.64-.93c-.15-.19-.33-.41-.54-.69l-.55-.73-.32.84c-.27.68-.5,1.33-.72,2a28.06,28.06,0,0,1-1.43,3.5c-2.17,4.09-4.45,8.12-7,12.59a5.69,5.69,0,0,1-5.4,3.09,12.18,12.18,0,0,1-2.67-.3c-.61-.78-1.27-1.57-1.94-2.39a53.56,53.56,0,0,1-4.89-6.59,49.53,49.53,0,0,1-3.3-7.33c-.46-1.18-.92-2.38-1.44-3.58l-.36-.87L381,334c-.47.72-.89,1.39-1.29,2-.78,1.24-1.45,2.31-2.22,3.3C369,350.23,359,355.53,346.88,355.55a21,21,0,0,0-3.73.45c-.56.1-1.12.2-1.68.28Zm87.68-47.19c1,5.41,1.74,10.75,2.45,15.9a210,210,0,0,0,3.52,20.74l.07.27,9.79,3.07-3-23.58-11.89-16.76Zm22.2,40h.38l1,0c7.55,0,12-2.49,13.47-7.62l.11-.37L443.88,331ZM346.94,331.55c-1.27.74-2.42,1.44-3.49,2.09a63.45,63.45,0,0,1-6,3.38c-2.11,1-4.38,1.77-6.57,2.54-1,.34-2,.68-2.93,1l-.46.17.17.45A11.69,11.69,0,0,0,339.21,349a18.3,18.3,0,0,0,3.6-.38l.31-.06L348,330.93Zm5.79-5-3.27,21.67h.69a14.09,14.09,0,0,0,9.28-3.06l.15-.12L366,310.6l-1.33-.35Zm24.11-40.16a29.51,29.51,0,0,0-4.86,17.3,77.16,77.16,0,0,1-1.42,12.92c-.12.72-.24,1.44-.35,2.17-.47,2.9-1.11,5.83-1.73,8.66-.36,1.65-.71,3.29-1,4.93s-.56,3.07-.86,4.87c-.16.92-.32,1.92-.52,3l-.24,1.38,1.07-1c5.32-4.73,8.27-9.07,9.57-14.08,1.57-6,2.94-11.92,2.45-18.09-.39-5-.6-9.84-.83-15-.1-2.26-.2-4.55-.32-6.89l-.08-1.53ZM415.62,321c.34,1.34.63,2.69.9,4,1.24,5.88,2.41,11.43,8.49,15.38l.93.61-.68-4.62c-.34-2.29-.64-4.36-.94-6.44q-.56-3.93-1.08-7.84c-.77-5.64-1.57-11.47-2.5-17.19-.22-1.39-.38-2.83-.53-4.22-.52-4.79-1.06-9.74-4.41-14.6l-.82-1.2-2.18,34.52Zm44.43-7.52,10.11,21.26,9.56,1.47-.15-.68c-1.06-4.74-3.33-8.69-5.52-12.5-2-3.51-3.93-6.83-4.82-10.58l-.11-.45Zm-144-6c-9.18,7.76-14.71,17.33-19.6,26.46l-.32.6,9.11,1.27.73-1.53c.39-.81.75-1.58,1.1-2.36,2.88-6.52,5.61-12.33,9.88-17.45,1.09-1.31,2.12-2.39,3.72-2.39a3.11,3.11,0,0,1,.43,0l1,4.11-.31.42c-4.14,5.8-8.05,11.29-9.41,18.45l-.11.57h7.77l.14-.24c2.93-4.64,5.39-9.51,8-14.68,1.17-2.31,2.38-4.71,3.63-7.08l.3-.57-10.35-1.93-5.44-3.94Zm160.74-14c.05,7.59-.4,11.2-5.08,16.42l-.3.34.32.32c5.3,5.1,8.29,11.71,11.19,18.09,1,2.25,2.07,4.57,3.21,6.79l.16.31,9.18-1.22-.19-.55c-1.8-5.07-4.84-9.34-7.78-13.47-1.69-2.38-3.44-4.83-4.92-7.41l2.16-3.14a45.24,45.24,0,0,1,9.05,10.22c1.8,2.77,3.48,5.6,5.26,8.59.8,1.35,1.62,2.72,2.47,4.13l.21.36,9-3.47-.25-.47c-6.35-11.92-15.82-26.81-32.92-36.26l-.76-.41ZM314,293.47c-13.34,8.49-24,19.86-33.57,35.79l-.29.49,10,3.71.21-.37c6.43-11.06,13.08-22.5,24.26-30.29l.21-.14V293Zm58.87-23.64c-.67.68-1.35,1.37-2,2.05-1.47,1.47-3,3-4.41,4.57-1.94,2.17-3.85,4.36-5.77,6.55-3,3.47-6.15,7.07-9.37,10.48-.89.95-1.89,1.87-2.85,2.75-2.79,2.58-5.67,5.24-6.79,9.29a5.93,5.93,0,0,1-1.29,2.05,12.49,12.49,0,0,0-1.07,1.44,31.66,31.66,0,0,0-1.95,3.91c-.66,1.56-1.29,3.14-1.92,4.72s-1.34,3.37-2.05,5c-.85,2-1.73,4-2.67,6.05l-1.24,2.78-.3.67h.76l.77,0,.5,0h0a2.31,2.31,0,0,0,.69-.09,12,12,0,0,0,2.35-1,54.09,54.09,0,0,0,16.52-14.59c3.79-5,7.21-10.47,10.52-15.71l2.3-3.63c5.83-9.15,9.16-18,10.17-27l.16-1.43ZM419,272.31l.11.34c.39,1.22.75,2.45,1.12,3.68a61.27,61.27,0,0,0,2.76,8c6.22,13.79,12.11,25,20.63,34.88,3.89,4.5,9.46,10,18.18,12.69l.81.25-.17-.81c-.09-.4-.14-.71-.19-1a4.41,4.41,0,0,0-.28-1.09l-.95-2c-4.4-9.31-8.95-18.95-13.5-28.39a8.39,8.39,0,0,0-2.13-2.43l-.23-.2c-.64-.56-1.31-1.09-2-1.6a24.09,24.09,0,0,1-2.85-2.46c-2.84-3-5.68-6.09-8.42-9.09-2-2.2-4-4.41-6.08-6.6-1.1-1.18-2.29-2.32-3.44-3.41l-1.59-1.52-.29-.29Zm-31.5,51.77.09.53c.72,4.16,1.38,5.47,4.36,6.15a15.16,15.16,0,0,0,3.4.41,12.64,12.64,0,0,0,9.38-4.26l.18-.19-.86-3.44Zm-23.1-68.79a5.78,5.78,0,0,0-2.19.44c-26,10.64-47.23,20.62-66.39,34.76a98.94,98.94,0,0,0-22,22.18,32.36,32.36,0,0,0-2.71,5c-.4.84-.8,1.71-1.25,2.59l-.13.25,4.77,6.9.42-.59c1.16-1.63,2.26-3.22,3.34-4.76,2.31-3.32,4.5-6.46,6.8-9.52a76.6,76.6,0,0,1,18.26-17.94c6.41-4.32,13.13-8.43,19.63-12.41l3.66-2.24c5.73-3.53,11.61-7,17.29-10.46l8-4.81,15-9-1.23-.24A6.84,6.84,0,0,0,364.38,255.29Zm58.77.77.37.19,2.11,1c1.5.71,3.05,1.43,4.51,2.24l5.48,3c6.56,3.59,13.34,7.31,19.89,11.15,4.58,2.69,9.17,5.55,13.6,8.32,3.91,2.44,7.95,5,12,7.36a82.35,82.35,0,0,1,27,25.41c1.73,2.62,3.38,5.24,5.13,8,.83,1.31,1.66,2.64,2.53,4l.34.53,5.41-5.5v-.17c.33-5.1-2.29-8.87-4.6-11.59a134.45,134.45,0,0,0-26.95-24.13c-10.64-7.19-22.66-13.75-39-21.27-6-2.75-12.27-5.06-18.37-7.29-2.72-1-5.54-2-8.28-3.08l-.51-.2ZM384.88,311c.26.62.44,1.16.6,1.62a4.85,4.85,0,0,0,1,2.06c1.84,1.79,5.06,2.82,8.83,2.82,4.52,0,8.55-1.45,10.52-3.8a4,4,0,0,0,.63-2.25c0-.46.09-1,.19-1.51l.17-.89-.86.36a24.12,24.12,0,0,1-9.77,1.86,76.51,76.51,0,0,1-8.91-.71l-2.76-.31ZM327.2,291.42a17.18,17.18,0,0,0-2.29.17l-.21,0-.12.17c-3.27,4.45-3.27,7.93,0,12.84l.1.15,4.87,1.39,4.88-2.4,2.47-4.75-.08-.2C334.84,293.71,331.88,291.42,327.2,291.42Zm134.47-.15c-3.39,0-4.81,1.39-6.9,4.72l-.07.11v.14c.09,4.56,1.77,7.68,5.14,9.55l.1.06h.12l1.19,0c5.59,0,7.46-2,8.31-8.81l0-.18-3.7-5.2-.22,0A27.06,27.06,0,0,0,461.67,291.27Zm-76,10.91.14.09a16.77,16.77,0,0,0,9,2.76,20.67,20.67,0,0,0,9.61-2.68c3.09-1.59,4-3.72,2.77-6.7l-.14-.36-.4.06c-1.23.16-2.43.36-3.6.55a50.32,50.32,0,0,1-7.43.87h-.39a59.32,59.32,0,0,1-7.34-.63c-1.22-.15-2.48-.31-3.78-.44l-.77-.08Zm-10.87-43.93c-14.66,6.86-27.53,15.13-42.83,25.23l-.68.45.72.37c.77.4,1.52.75,2.25,1.09a25,25,0,0,1,4.14,2.27,23.54,23.54,0,0,1,3.28,3.22c.53.59,1.08,1.21,1.69,1.84l.36.39.37-.39c3.33-3.49,6.55-7.13,9.66-10.65,6.42-7.26,13.06-14.76,20.76-21a2.85,2.85,0,0,0,.77-1.57,5.52,5.52,0,0,1,.2-.65l.43-1.13ZM418,260.91c6.25,7,12.76,13.6,19,19.94,3.76,3.8,7.32,7.39,10.83,11.08l.32.33,11.49-9.16-.43-.37c-6.43-5.61-35.25-22-40.82-22.61l-1.27-.14Zm-34.52,25.91.13.13a14.65,14.65,0,0,0,10.63,4.52h0c4.16,0,8.84-1.61,13.91-4.8l.14-.09,2.09-5.78L408.93,282C405,285.38,401.41,287,397.7,287a14.57,14.57,0,0,1-4.38-.71,40.52,40.52,0,0,1-5.26-2.24c-.9-.43-1.79-.86-2.7-1.26a3.24,3.24,0,0,0-1-.21l-.61-.08-.63-.09ZM398,244.94H398c-.48.11-1,.21-1.49.31-3,.6-6.36,1.27-9.28,4-4,3.69-5.55,8.58-4.85,14.95.5,4.54,1.93,11,8.56,14.35a13.45,13.45,0,0,0,6,1.63h0c3.43,0,6.14-1.85,8.05-5.51a37.12,37.12,0,0,0,2.31-6c.41-1.3.83-2.63,1.34-3.9,2.07-5.14.56-9.89-1.16-14.32-1.52-3.92-4.21-5.51-9.28-5.51Z" transform="translate(-15.84 -30.13)"/><g id="BottomRightCorner"><g class="cls-5"><path class="cls-6" d="M683.89,31.63V267.41H108.05V31.63H683.89m1.5-1.5H106.55V268.91H685.39V30.13Z" transform="translate(-15.84 -30.13)"/></g></g><g id="Top"><g class="cls-7"><path class="cls-6" d="M683.89,31.63V267.41H108.05V31.63H683.89m1.5-1.5H106.55V268.91H685.39V30.13Z" transform="translate(-15.84 -30.13)"/></g></g><g id="BottomLeft"><g class="cls-8"><path class="cls-6" d="M683.89,31.63V267.41H108.05V31.63H683.89m1.5-1.5H106.55V268.91H685.39V30.13Z" transform="translate(-15.84 -30.13)"/></g></g></svg>